<?xml version="1.0" encoding="utf-8" standalone="no"?>
<!DOCTYPE svg PUBLIC "-//W3C//DTD SVG 1.1//EN"
  "http://www.w3.org/Graphics/SVG/1.1/DTD/svg11.dtd">
<svg xmlns:xlink="http://www.w3.org/1999/xlink" width="655.2pt" height="151.2pt" viewBox="0 0 655.2 151.2" xmlns="http://www.w3.org/2000/svg" version="1.1">
 <metadata>
  <rdf:RDF xmlns:dc="http://purl.org/dc/elements/1.1/" xmlns:cc="http://creativecommons.org/ns#" xmlns:rdf="http://www.w3.org/1999/02/22-rdf-syntax-ns#">
   <cc:Work>
    <dc:type rdf:resource="http://purl.org/dc/dcmitype/StillImage"/>
    <dc:date>2026-03-20T14:44:28.687023</dc:date>
    <dc:format>image/svg+xml</dc:format>
    <dc:creator>
     <cc:Agent>
      <dc:title>Matplotlib v3.10.8, https://matplotlib.org/</dc:title>
     </cc:Agent>
    </dc:creator>
   </cc:Work>
  </rdf:RDF>
 </metadata>
 <defs>
  <style type="text/css">*{stroke-linejoin: round; stroke-linecap: butt}</style>
 </defs>
 <g id="figure_1">
  <g id="patch_1">
   <path d="M 0 151.2 
L 655.2 151.2 
L 655.2 0 
L 0 0 
L 0 151.2 
z
" style="fill: none; opacity: 0"/>
  </g>
  <g id="axes_1">
   <g id="patch_2">
    <path d="M 14.4 133.2 
L 17.6 133.2 
L 17.6 18 
L 14.4 18 
z
" clip-path="url(#pf7086fe188)" style="fill: #424086"/>
   </g>
   <g id="patch_3">
    <path d="M 17.6 133.2 
L 20.8 133.2 
L 20.8 18 
L 17.6 18 
z
" clip-path="url(#p5202cac695)" style="fill: #404688"/>
   </g>
   <g id="patch_4">
    <path d="M 20.8 133.2 
L 24 133.2 
L 24 18 
L 20.8 18 
z
" clip-path="url(#p89dcb44ac8)" style="fill: #472e7c"/>
   </g>
   <g id="patch_5">
    <path d="M 24 133.2 
L 27.2 133.2 
L 27.2 18 
L 24 18 
z
" clip-path="url(#p0384677ece)" style="fill: #2e6f8e"/>
   </g>
   <g id="patch_6">
    <path d="M 27.2 133.2 
L 30.4 133.2 
L 30.4 18 
L 27.2 18 
z
" clip-path="url(#p21a42cb296)" style="fill: #2e6e8e"/>
   </g>
   <g id="patch_7">
    <path d="M 30.4 133.2 
L 33.6 133.2 
L 33.6 18 
L 30.4 18 
z
" clip-path="url(#p4d6bc4b611)" style="fill: #3d4e8a"/>
   </g>
   <g id="patch_8">
    <path d="M 33.6 133.2 
L 36.8 133.2 
L 36.8 18 
L 33.6 18 
z
" clip-path="url(#pf3c19e8bc4)" style="fill: #31688e"/>
   </g>
   <g id="patch_9">
    <path d="M 36.8 133.2 
L 40 133.2 
L 40 18 
L 36.8 18 
z
" clip-path="url(#p366816dfbd)" style="fill: #32648e"/>
   </g>
   <g id="patch_10">
    <path d="M 40 133.2 
L 43.2 133.2 
L 43.2 18 
L 40 18 
z
" clip-path="url(#pbf106c1394)" style="fill: #38598c"/>
   </g>
   <g id="patch_11">
    <path d="M 43.2 133.2 
L 46.4 133.2 
L 46.4 18 
L 43.2 18 
z
" clip-path="url(#pf0217615d3)" style="fill: #39558c"/>
   </g>
   <g id="patch_12">
    <path d="M 46.4 133.2 
L 49.6 133.2 
L 49.6 18 
L 46.4 18 
z
" clip-path="url(#p789b4d61fb)" style="fill: #277e8e"/>
   </g>
   <g id="patch_13">
    <path d="M 49.6 133.2 
L 52.8 133.2 
L 52.8 18 
L 49.6 18 
z
" clip-path="url(#p603658bb68)" style="fill: #23a983"/>
   </g>
   <g id="patch_14">
    <path d="M 52.8 133.2 
L 56 133.2 
L 56 18 
L 52.8 18 
z
" clip-path="url(#pea38d7b55c)" style="fill: #21918c"/>
   </g>
   <g id="patch_15">
    <path d="M 56 133.2 
L 59.2 133.2 
L 59.2 18 
L 56 18 
z
" clip-path="url(#pb6683b771b)" style="fill: #23888e"/>
   </g>
   <g id="patch_16">
    <path d="M 59.2 133.2 
L 62.4 133.2 
L 62.4 18 
L 59.2 18 
z
" clip-path="url(#p99ef4052a1)" style="fill: #1f948c"/>
   </g>
   <g id="patch_17">
    <path d="M 62.4 133.2 
L 65.6 133.2 
L 65.6 18 
L 62.4 18 
z
" clip-path="url(#p47d92363de)" style="fill: #228d8d"/>
   </g>
   <g id="patch_18">
    <path d="M 65.6 133.2 
L 68.8 133.2 
L 68.8 18 
L 65.6 18 
z
" clip-path="url(#p578984e79e)" style="fill: #2fb47c"/>
   </g>
   <g id="patch_19">
    <path d="M 68.8 133.2 
L 72 133.2 
L 72 18 
L 68.8 18 
z
" clip-path="url(#p7735cbbf49)" style="fill: #44bf70"/>
   </g>
   <g id="patch_20">
    <path d="M 72 133.2 
L 75.2 133.2 
L 75.2 18 
L 72 18 
z
" clip-path="url(#pec52f5f2ba)" style="fill: #1f978b"/>
   </g>
   <g id="patch_21">
    <path d="M 75.2 133.2 
L 78.4 133.2 
L 78.4 18 
L 75.2 18 
z
" clip-path="url(#p97004484f0)" style="fill: #38b977"/>
   </g>
   <g id="patch_22">
    <path d="M 78.4 133.2 
L 81.6 133.2 
L 81.6 18 
L 78.4 18 
z
" clip-path="url(#p1c8894e571)" style="fill: #73d056"/>
   </g>
   <g id="patch_23">
    <path d="M 81.6 133.2 
L 84.8 133.2 
L 84.8 18 
L 81.6 18 
z
" clip-path="url(#p5f889f722a)" style="fill: #26ad81"/>
   </g>
   <g id="patch_24">
    <path d="M 84.8 133.2 
L 88 133.2 
L 88 18 
L 84.8 18 
z
" clip-path="url(#p59d38c0ae9)" style="fill: #3dbc74"/>
   </g>
   <g id="patch_25">
    <path d="M 88 133.2 
L 91.2 133.2 
L 91.2 18 
L 88 18 
z
" clip-path="url(#p1cec0e1a47)" style="fill: #20a386"/>
   </g>
   <g id="patch_26">
    <path d="M 91.2 133.2 
L 94.4 133.2 
L 94.4 18 
L 91.2 18 
z
" clip-path="url(#pc22665872d)" style="fill: #20928c"/>
   </g>
   <g id="patch_27">
    <path d="M 94.4 133.2 
L 97.6 133.2 
L 97.6 18 
L 94.4 18 
z
" clip-path="url(#p37f0421bf0)" style="fill: #27808e"/>
   </g>
   <g id="patch_28">
    <path d="M 97.6 133.2 
L 100.8 133.2 
L 100.8 18 
L 97.6 18 
z
" clip-path="url(#p7fcffdbb42)" style="fill: #1f948c"/>
   </g>
   <g id="patch_29">
    <path d="M 100.8 133.2 
L 104 133.2 
L 104 18 
L 100.8 18 
z
" clip-path="url(#pc2f61834f8)" style="fill: #1f948c"/>
   </g>
   <g id="patch_30">
    <path d="M 104 133.2 
L 107.2 133.2 
L 107.2 18 
L 104 18 
z
" clip-path="url(#p1bfd808592)" style="fill: #355e8d"/>
   </g>
   <g id="patch_31">
    <path d="M 107.2 133.2 
L 110.4 133.2 
L 110.4 18 
L 107.2 18 
z
" clip-path="url(#pd83f4b54f7)" style="fill: #228d8d"/>
   </g>
   <g id="patch_32">
    <path d="M 110.4 133.2 
L 113.6 133.2 
L 113.6 18 
L 110.4 18 
z
" clip-path="url(#p96732e58a6)" style="fill: #27808e"/>
   </g>
   <g id="patch_33">
    <path d="M 113.6 133.2 
L 116.8 133.2 
L 116.8 18 
L 113.6 18 
z
" clip-path="url(#p8aa870858c)" style="fill: #3d4d8a"/>
   </g>
   <g id="patch_34">
    <path d="M 116.8 133.2 
L 120 133.2 
L 120 18 
L 116.8 18 
z
" clip-path="url(#p8e2055212d)" style="fill: #365c8d"/>
   </g>
   <g id="patch_35">
    <path d="M 120 133.2 
L 123.2 133.2 
L 123.2 18 
L 120 18 
z
" clip-path="url(#p0c78c85a50)" style="fill: #297a8e"/>
   </g>
   <g id="patch_36">
    <path d="M 123.2 133.2 
L 126.4 133.2 
L 126.4 18 
L 123.2 18 
z
" clip-path="url(#p59a9ddfa29)" style="fill: #3b528b"/>
   </g>
   <g id="patch_37">
    <path d="M 126.4 133.2 
L 129.6 133.2 
L 129.6 18 
L 126.4 18 
z
" clip-path="url(#p6a2fe5d333)" style="fill: #375a8c"/>
   </g>
   <g id="patch_38">
    <path d="M 14.4 138.96 
L 129.6 138.96 
Q 135.36 138.96 135.36 133.2 
L 135.36 18 
Q 135.36 12.24 129.6 12.24 
L 14.4 12.24 
Q 8.64 12.24 8.64 18 
L 8.64 133.2 
Q 8.64 138.96 14.4 138.96 
L 14.4 138.96 
z
" clip-path="url(#p65e2492e5e)" style="fill: none"/>
   </g>
   <g id="text_1">
    <!-- ETHOS.TSAM -->
    <g style="fill: #023d6b" transform="translate(154.8 67.58125) scale(0.44 -0.44)">
     <defs>
      <path id="DejaVuSans-Bold-45" d="M 588 4666 
L 3834 4666 
L 3834 3756 
L 1791 3756 
L 1791 2888 
L 3713 2888 
L 3713 1978 
L 1791 1978 
L 1791 909 
L 3903 909 
L 3903 0 
L 588 0 
L 588 4666 
z
" transform="scale(0.015625)"/>
      <path id="DejaVuSans-Bold-54" d="M 31 4666 
L 4331 4666 
L 4331 3756 
L 2784 3756 
L 2784 0 
L 1581 0 
L 1581 3756 
L 31 3756 
L 31 4666 
z
" transform="scale(0.015625)"/>
      <path id="DejaVuSans-Bold-48" d="M 588 4666 
L 1791 4666 
L 1791 2888 
L 3566 2888 
L 3566 4666 
L 4769 4666 
L 4769 0 
L 3566 0 
L 3566 1978 
L 1791 1978 
L 1791 0 
L 588 0 
L 588 4666 
z
" transform="scale(0.015625)"/>
      <path id="DejaVuSans-Bold-4f" d="M 2719 3878 
Q 2169 3878 1866 3472 
Q 1563 3066 1563 2328 
Q 1563 1594 1866 1187 
Q 2169 781 2719 781 
Q 3272 781 3575 1187 
Q 3878 1594 3878 2328 
Q 3878 3066 3575 3472 
Q 3272 3878 2719 3878 
z
M 2719 4750 
Q 3844 4750 4481 4106 
Q 5119 3463 5119 2328 
Q 5119 1197 4481 553 
Q 3844 -91 2719 -91 
Q 1597 -91 958 553 
Q 319 1197 319 2328 
Q 319 3463 958 4106 
Q 1597 4750 2719 4750 
z
" transform="scale(0.015625)"/>
      <path id="DejaVuSans-Bold-53" d="M 3834 4519 
L 3834 3531 
Q 3450 3703 3084 3790 
Q 2719 3878 2394 3878 
Q 1963 3878 1756 3759 
Q 1550 3641 1550 3391 
Q 1550 3203 1689 3098 
Q 1828 2994 2194 2919 
L 2706 2816 
Q 3484 2659 3812 2340 
Q 4141 2022 4141 1434 
Q 4141 663 3683 286 
Q 3225 -91 2284 -91 
Q 1841 -91 1394 -6 
Q 947 78 500 244 
L 500 1259 
Q 947 1022 1364 901 
Q 1781 781 2169 781 
Q 2563 781 2772 912 
Q 2981 1044 2981 1288 
Q 2981 1506 2839 1625 
Q 2697 1744 2272 1838 
L 1806 1941 
Q 1106 2091 782 2419 
Q 459 2747 459 3303 
Q 459 4000 909 4375 
Q 1359 4750 2203 4750 
Q 2588 4750 2994 4692 
Q 3400 4634 3834 4519 
z
" transform="scale(0.015625)"/>
      <path id="DejaVuSans-Bold-2e" d="M 653 1209 
L 1778 1209 
L 1778 0 
L 653 0 
L 653 1209 
z
" transform="scale(0.015625)"/>
      <path id="DejaVuSans-Bold-41" d="M 3419 850 
L 1538 850 
L 1241 0 
L 31 0 
L 1759 4666 
L 3194 4666 
L 4922 0 
L 3713 0 
L 3419 850 
z
M 1838 1716 
L 3116 1716 
L 2478 3572 
L 1838 1716 
z
" transform="scale(0.015625)"/>
      <path id="DejaVuSans-Bold-4d" d="M 588 4666 
L 2119 4666 
L 3181 2169 
L 4250 4666 
L 5778 4666 
L 5778 0 
L 4641 0 
L 4641 3413 
L 3566 897 
L 2803 897 
L 1728 3413 
L 1728 0 
L 588 0 
L 588 4666 
z
" transform="scale(0.015625)"/>
     </defs>
     <use xlink:href="#DejaVuSans-Bold-45"/>
     <use xlink:href="#DejaVuSans-Bold-54" transform="translate(68.310547 0)"/>
     <use xlink:href="#DejaVuSans-Bold-48" transform="translate(136.523438 0)"/>
     <use xlink:href="#DejaVuSans-Bold-4f" transform="translate(220.214844 0)"/>
     <use xlink:href="#DejaVuSans-Bold-53" transform="translate(305.224609 0)"/>
     <use xlink:href="#DejaVuSans-Bold-2e" transform="translate(377.246094 0)"/>
     <use xlink:href="#DejaVuSans-Bold-54" transform="translate(415.234375 0)"/>
     <use xlink:href="#DejaVuSans-Bold-53" transform="translate(483.447266 0)"/>
     <use xlink:href="#DejaVuSans-Bold-41" transform="translate(555.46875 0)"/>
     <use xlink:href="#DejaVuSans-Bold-4d" transform="translate(632.861328 0)"/>
    </g>
   </g>
   <g id="text_2">
    <!-- Energy Transformation PatHway Optimization Suite -->
    <g style="fill: #555555" transform="translate(158.4 96) scale(0.13 -0.13)">
     <defs>
      <path id="DejaVuSans-Oblique-45" d="M 1081 4666 
L 4031 4666 
L 3928 4134 
L 1606 4134 
L 1338 2753 
L 3566 2753 
L 3463 2222 
L 1234 2222 
L 909 531 
L 3284 531 
L 3181 0 
L 172 0 
L 1081 4666 
z
" transform="scale(0.015625)"/>
      <path id="DejaVuSans-Oblique-6e" d="M 3566 2113 
L 3156 0 
L 2578 0 
L 2988 2091 
Q 3016 2238 3031 2350 
Q 3047 2463 3047 2528 
Q 3047 2791 2881 2937 
Q 2716 3084 2419 3084 
Q 1956 3084 1622 2776 
Q 1288 2469 1184 1941 
L 800 0 
L 225 0 
L 903 3500 
L 1478 3500 
L 1363 2950 
Q 1603 3253 1940 3418 
Q 2278 3584 2650 3584 
Q 3113 3584 3367 3334 
Q 3622 3084 3622 2631 
Q 3622 2519 3608 2391 
Q 3594 2263 3566 2113 
z
" transform="scale(0.015625)"/>
      <path id="DejaVuSans-Oblique-65" d="M 3078 2063 
Q 3088 2113 3092 2166 
Q 3097 2219 3097 2272 
Q 3097 2653 2873 2875 
Q 2650 3097 2266 3097 
Q 1838 3097 1509 2826 
Q 1181 2556 1013 2059 
L 3078 2063 
z
M 3578 1613 
L 903 1613 
Q 884 1494 878 1425 
Q 872 1356 872 1306 
Q 872 872 1139 634 
Q 1406 397 1894 397 
Q 2269 397 2603 481 
Q 2938 566 3225 728 
L 3116 159 
Q 2806 34 2476 -28 
Q 2147 -91 1806 -91 
Q 1078 -91 686 257 
Q 294 606 294 1247 
Q 294 1794 489 2264 
Q 684 2734 1063 3103 
Q 1306 3334 1642 3459 
Q 1978 3584 2356 3584 
Q 2950 3584 3301 3228 
Q 3653 2872 3653 2272 
Q 3653 2128 3634 1964 
Q 3616 1800 3578 1613 
z
" transform="scale(0.015625)"/>
      <path id="DejaVuSans-Oblique-72" d="M 2853 2969 
Q 2766 3016 2653 3041 
Q 2541 3066 2413 3066 
Q 1953 3066 1609 2717 
Q 1266 2369 1153 1784 
L 800 0 
L 225 0 
L 909 3500 
L 1484 3500 
L 1375 2956 
Q 1603 3259 1920 3421 
Q 2238 3584 2597 3584 
Q 2691 3584 2781 3573 
Q 2872 3563 2963 3538 
L 2853 2969 
z
" transform="scale(0.015625)"/>
      <path id="DejaVuSans-Oblique-67" d="M 3816 3500 
L 3219 434 
Q 3047 -456 2561 -893 
Q 2075 -1331 1253 -1331 
Q 950 -1331 690 -1286 
Q 431 -1241 206 -1147 
L 313 -588 
Q 525 -725 762 -790 
Q 1000 -856 1269 -856 
Q 1816 -856 2167 -557 
Q 2519 -259 2631 300 
L 2681 563 
Q 2441 288 2122 144 
Q 1803 0 1434 0 
Q 903 0 598 351 
Q 294 703 294 1319 
Q 294 1803 478 2267 
Q 663 2731 997 3091 
Q 1219 3328 1514 3456 
Q 1809 3584 2131 3584 
Q 2484 3584 2746 3420 
Q 3009 3256 3138 2956 
L 3238 3500 
L 3816 3500 
z
M 2950 2216 
Q 2950 2641 2750 2872 
Q 2550 3103 2181 3103 
Q 1953 3103 1747 3012 
Q 1541 2922 1394 2759 
Q 1156 2491 1023 2127 
Q 891 1763 891 1375 
Q 891 944 1092 712 
Q 1294 481 1672 481 
Q 2219 481 2584 976 
Q 2950 1472 2950 2216 
z
" transform="scale(0.015625)"/>
      <path id="DejaVuSans-Oblique-79" d="M 1588 -325 
Q 1188 -997 936 -1164 
Q 684 -1331 294 -1331 
L -159 -1331 
L -63 -850 
L 269 -850 
Q 509 -850 678 -719 
Q 847 -588 1056 -206 
L 1234 128 
L 459 3500 
L 1069 3500 
L 1650 819 
L 3256 3500 
L 3859 3500 
L 1588 -325 
z
" transform="scale(0.015625)"/>
      <path id="DejaVuSans-Oblique-20" transform="scale(0.015625)"/>
      <path id="DejaVuSans-Oblique-54" d="M 378 4666 
L 4325 4666 
L 4225 4134 
L 2559 4134 
L 1759 0 
L 1125 0 
L 1925 4134 
L 275 4134 
L 378 4666 
z
" transform="scale(0.015625)"/>
      <path id="DejaVuSans-Oblique-61" d="M 3438 1997 
L 3047 0 
L 2472 0 
L 2578 531 
Q 2325 219 2001 64 
Q 1678 -91 1281 -91 
Q 834 -91 548 182 
Q 263 456 263 884 
Q 263 1497 752 1853 
Q 1241 2209 2100 2209 
L 2900 2209 
L 2931 2363 
Q 2938 2388 2941 2417 
Q 2944 2447 2944 2509 
Q 2944 2788 2717 2942 
Q 2491 3097 2081 3097 
Q 1800 3097 1504 3025 
Q 1209 2953 897 2809 
L 997 3341 
Q 1322 3463 1633 3523 
Q 1944 3584 2234 3584 
Q 2853 3584 3176 3315 
Q 3500 3047 3500 2534 
Q 3500 2431 3484 2292 
Q 3469 2153 3438 1997 
z
M 2816 1759 
L 2241 1759 
Q 1534 1759 1195 1570 
Q 856 1381 856 984 
Q 856 709 1029 553 
Q 1203 397 1509 397 
Q 1978 397 2328 733 
Q 2678 1069 2791 1631 
L 2816 1759 
z
" transform="scale(0.015625)"/>
      <path id="DejaVuSans-Oblique-73" d="M 3200 3397 
L 3091 2853 
Q 2863 2978 2609 3040 
Q 2356 3103 2088 3103 
Q 1634 3103 1373 2948 
Q 1113 2794 1113 2528 
Q 1113 2219 1719 2053 
Q 1766 2041 1788 2034 
L 1972 1978 
Q 2547 1819 2739 1644 
Q 2931 1469 2931 1166 
Q 2931 609 2489 259 
Q 2047 -91 1331 -91 
Q 1053 -91 747 -37 
Q 441 16 72 128 
L 184 722 
Q 500 559 806 475 
Q 1113 391 1394 391 
Q 1816 391 2080 572 
Q 2344 753 2344 1031 
Q 2344 1331 1650 1516 
L 1591 1531 
L 1394 1581 
Q 956 1697 753 1886 
Q 550 2075 550 2369 
Q 550 2928 970 3256 
Q 1391 3584 2113 3584 
Q 2397 3584 2667 3537 
Q 2938 3491 3200 3397 
z
" transform="scale(0.015625)"/>
      <path id="DejaVuSans-Oblique-66" d="M 3059 4863 
L 2969 4384 
L 2419 4384 
Q 2106 4384 1964 4261 
Q 1822 4138 1753 3809 
L 1691 3500 
L 2638 3500 
L 2553 3053 
L 1606 3053 
L 1013 0 
L 434 0 
L 1031 3053 
L 481 3053 
L 563 3500 
L 1113 3500 
L 1159 3744 
Q 1278 4363 1576 4613 
Q 1875 4863 2516 4863 
L 3059 4863 
z
" transform="scale(0.015625)"/>
      <path id="DejaVuSans-Oblique-6f" d="M 1625 -91 
Q 1009 -91 651 289 
Q 294 669 294 1325 
Q 294 1706 417 2101 
Q 541 2497 738 2766 
Q 1047 3184 1428 3384 
Q 1809 3584 2291 3584 
Q 2888 3584 3255 3212 
Q 3622 2841 3622 2241 
Q 3622 1825 3500 1412 
Q 3378 1000 3181 728 
Q 2875 309 2494 109 
Q 2113 -91 1625 -91 
z
M 891 1344 
Q 891 869 1089 633 
Q 1288 397 1691 397 
Q 2269 397 2648 901 
Q 3028 1406 3028 2181 
Q 3028 2634 2825 2865 
Q 2622 3097 2228 3097 
Q 1903 3097 1650 2945 
Q 1397 2794 1197 2484 
Q 1050 2253 970 1956 
Q 891 1659 891 1344 
z
" transform="scale(0.015625)"/>
      <path id="DejaVuSans-Oblique-6d" d="M 5747 2113 
L 5338 0 
L 4763 0 
L 5166 2094 
Q 5191 2228 5203 2325 
Q 5216 2422 5216 2491 
Q 5216 2772 5059 2928 
Q 4903 3084 4622 3084 
Q 4203 3084 3875 2770 
Q 3547 2456 3450 1953 
L 3066 0 
L 2491 0 
L 2900 2094 
Q 2925 2209 2937 2307 
Q 2950 2406 2950 2484 
Q 2950 2769 2794 2926 
Q 2638 3084 2363 3084 
Q 1938 3084 1609 2770 
Q 1281 2456 1184 1953 
L 800 0 
L 225 0 
L 909 3500 
L 1484 3500 
L 1375 2956 
Q 1609 3263 1923 3423 
Q 2238 3584 2597 3584 
Q 2978 3584 3223 3384 
Q 3469 3184 3519 2828 
Q 3781 3197 4126 3390 
Q 4472 3584 4856 3584 
Q 5306 3584 5551 3325 
Q 5797 3066 5797 2591 
Q 5797 2488 5784 2364 
Q 5772 2241 5747 2113 
z
" transform="scale(0.015625)"/>
      <path id="DejaVuSans-Oblique-74" d="M 2706 3500 
L 2619 3053 
L 1472 3053 
L 1100 1153 
Q 1081 1047 1072 975 
Q 1063 903 1063 863 
Q 1063 663 1183 572 
Q 1303 481 1569 481 
L 2150 481 
L 2053 0 
L 1503 0 
Q 991 0 739 200 
Q 488 400 488 806 
Q 488 878 497 964 
Q 506 1050 525 1153 
L 897 3053 
L 409 3053 
L 500 3500 
L 978 3500 
L 1172 4494 
L 1747 4494 
L 1556 3500 
L 2706 3500 
z
" transform="scale(0.015625)"/>
      <path id="DejaVuSans-Oblique-69" d="M 1172 4863 
L 1747 4863 
L 1606 4134 
L 1031 4134 
L 1172 4863 
z
M 909 3500 
L 1484 3500 
L 800 0 
L 225 0 
L 909 3500 
z
" transform="scale(0.015625)"/>
      <path id="DejaVuSans-Oblique-50" d="M 1081 4666 
L 2541 4666 
Q 3178 4666 3512 4369 
Q 3847 4072 3847 3500 
Q 3847 2731 3353 2303 
Q 2859 1875 1966 1875 
L 1172 1875 
L 806 0 
L 172 0 
L 1081 4666 
z
M 1613 4147 
L 1275 2394 
L 2069 2394 
Q 2606 2394 2893 2669 
Q 3181 2944 3181 3456 
Q 3181 3784 2986 3965 
Q 2791 4147 2438 4147 
L 1613 4147 
z
" transform="scale(0.015625)"/>
      <path id="DejaVuSans-Oblique-48" d="M 1081 4666 
L 1716 4666 
L 1344 2753 
L 3634 2753 
L 4006 4666 
L 4641 4666 
L 3731 0 
L 3097 0 
L 3531 2222 
L 1241 2222 
L 806 0 
L 172 0 
L 1081 4666 
z
" transform="scale(0.015625)"/>
      <path id="DejaVuSans-Oblique-77" d="M 544 3500 
L 1113 3500 
L 1259 684 
L 2566 3500 
L 3231 3500 
L 3425 684 
L 4666 3500 
L 5241 3500 
L 3641 0 
L 2969 0 
L 2797 2900 
L 1459 0 
L 781 0 
L 544 3500 
z
" transform="scale(0.015625)"/>
      <path id="DejaVuSans-Oblique-4f" d="M 2919 4238 
Q 2400 4238 2003 3986 
Q 1606 3734 1313 3219 
Q 1125 2891 1026 2522 
Q 928 2153 928 1778 
Q 928 1128 1239 775 
Q 1550 422 2119 422 
Q 2631 422 3032 676 
Q 3434 931 3719 1434 
Q 3909 1772 4009 2142 
Q 4109 2513 4109 2881 
Q 4109 3528 3796 3883 
Q 3484 4238 2919 4238 
z
M 2100 -91 
Q 1241 -91 748 418 
Q 256 928 256 1813 
Q 256 2319 448 2847 
Q 641 3375 978 3788 
Q 1375 4272 1862 4511 
Q 2350 4750 2938 4750 
Q 3794 4750 4287 4245 
Q 4781 3741 4781 2869 
Q 4781 2331 4593 1812 
Q 4406 1294 4056 872 
Q 3656 384 3173 146 
Q 2691 -91 2100 -91 
z
" transform="scale(0.015625)"/>
      <path id="DejaVuSans-Oblique-70" d="M 3175 2156 
Q 3175 2616 2975 2859 
Q 2775 3103 2400 3103 
Q 2144 3103 1911 2972 
Q 1678 2841 1497 2591 
Q 1319 2344 1212 1994 
Q 1106 1644 1106 1300 
Q 1106 863 1306 627 
Q 1506 391 1875 391 
Q 2147 391 2380 519 
Q 2613 647 2778 891 
Q 2956 1147 3065 1494 
Q 3175 1841 3175 2156 
z
M 1394 2969 
Q 1625 3272 1939 3428 
Q 2253 3584 2638 3584 
Q 3175 3584 3472 3232 
Q 3769 2881 3769 2247 
Q 3769 1728 3584 1258 
Q 3400 788 3053 416 
Q 2822 169 2531 39 
Q 2241 -91 1919 -91 
Q 1547 -91 1294 64 
Q 1041 219 916 525 
L 556 -1331 
L -19 -1331 
L 922 3500 
L 1497 3500 
L 1394 2969 
z
" transform="scale(0.015625)"/>
      <path id="DejaVuSans-Oblique-7a" d="M 744 3500 
L 3475 3500 
L 3372 2975 
L 738 459 
L 2913 459 
L 2822 0 
L -19 0 
L 84 525 
L 2719 3041 
L 653 3041 
L 744 3500 
z
" transform="scale(0.015625)"/>
      <path id="DejaVuSans-Oblique-53" d="M 3859 4513 
L 3738 3897 
Q 3422 4066 3111 4152 
Q 2800 4238 2509 4238 
Q 1944 4238 1609 3991 
Q 1275 3744 1275 3334 
Q 1275 3109 1398 2989 
Q 1522 2869 2034 2731 
L 2413 2638 
Q 3053 2472 3303 2217 
Q 3553 1963 3553 1503 
Q 3553 797 2998 353 
Q 2444 -91 1538 -91 
Q 1166 -91 791 -17 
Q 416 56 38 206 
L 166 856 
Q 513 641 861 531 
Q 1209 422 1556 422 
Q 2147 422 2503 684 
Q 2859 947 2859 1369 
Q 2859 1650 2717 1795 
Q 2575 1941 2106 2059 
L 1728 2156 
Q 1081 2325 845 2545 
Q 609 2766 609 3163 
Q 609 3859 1145 4304 
Q 1681 4750 2541 4750 
Q 2875 4750 3203 4690 
Q 3531 4631 3859 4513 
z
" transform="scale(0.015625)"/>
      <path id="DejaVuSans-Oblique-75" d="M 428 1388 
L 838 3500 
L 1416 3500 
L 1006 1409 
Q 975 1256 961 1147 
Q 947 1038 947 966 
Q 947 700 1109 554 
Q 1272 409 1569 409 
Q 2031 409 2368 721 
Q 2706 1034 2809 1563 
L 3194 3500 
L 3769 3500 
L 3091 0 
L 2516 0 
L 2631 550 
Q 2388 244 2052 76 
Q 1716 -91 1338 -91 
Q 878 -91 622 161 
Q 366 413 366 863 
Q 366 956 381 1097 
Q 397 1238 428 1388 
z
" transform="scale(0.015625)"/>
     </defs>
     <use xlink:href="#DejaVuSans-Oblique-45"/>
     <use xlink:href="#DejaVuSans-Oblique-6e" transform="translate(63.183594 0)"/>
     <use xlink:href="#DejaVuSans-Oblique-65" transform="translate(126.5625 0)"/>
     <use xlink:href="#DejaVuSans-Oblique-72" transform="translate(188.085938 0)"/>
     <use xlink:href="#DejaVuSans-Oblique-67" transform="translate(229.199219 0)"/>
     <use xlink:href="#DejaVuSans-Oblique-79" transform="translate(292.675781 0)"/>
     <use xlink:href="#DejaVuSans-Oblique-20" transform="translate(351.855469 0)"/>
     <use xlink:href="#DejaVuSans-Oblique-54" transform="translate(383.642578 0)"/>
     <use xlink:href="#DejaVuSans-Oblique-72" transform="translate(436.976562 0)"/>
     <use xlink:href="#DejaVuSans-Oblique-61" transform="translate(478.089844 0)"/>
     <use xlink:href="#DejaVuSans-Oblique-6e" transform="translate(539.369141 0)"/>
     <use xlink:href="#DejaVuSans-Oblique-73" transform="translate(602.748047 0)"/>
     <use xlink:href="#DejaVuSans-Oblique-66" transform="translate(654.847656 0)"/>
     <use xlink:href="#DejaVuSans-Oblique-6f" transform="translate(690.052734 0)"/>
     <use xlink:href="#DejaVuSans-Oblique-72" transform="translate(751.234375 0)"/>
     <use xlink:href="#DejaVuSans-Oblique-6d" transform="translate(792.347656 0)"/>
     <use xlink:href="#DejaVuSans-Oblique-61" transform="translate(889.759766 0)"/>
     <use xlink:href="#DejaVuSans-Oblique-74" transform="translate(951.039062 0)"/>
     <use xlink:href="#DejaVuSans-Oblique-69" transform="translate(990.248047 0)"/>
     <use xlink:href="#DejaVuSans-Oblique-6f" transform="translate(1018.03125 0)"/>
     <use xlink:href="#DejaVuSans-Oblique-6e" transform="translate(1079.212891 0)"/>
     <use xlink:href="#DejaVuSans-Oblique-20" transform="translate(1142.591797 0)"/>
     <use xlink:href="#DejaVuSans-Oblique-50" transform="translate(1174.378906 0)"/>
     <use xlink:href="#DejaVuSans-Oblique-61" transform="translate(1234.681641 0)"/>
     <use xlink:href="#DejaVuSans-Oblique-74" transform="translate(1295.960938 0)"/>
     <use xlink:href="#DejaVuSans-Oblique-48" transform="translate(1335.169922 0)"/>
     <use xlink:href="#DejaVuSans-Oblique-77" transform="translate(1410.365234 0)"/>
     <use xlink:href="#DejaVuSans-Oblique-61" transform="translate(1492.152344 0)"/>
     <use xlink:href="#DejaVuSans-Oblique-79" transform="translate(1553.431641 0)"/>
     <use xlink:href="#DejaVuSans-Oblique-20" transform="translate(1612.611328 0)"/>
     <use xlink:href="#DejaVuSans-Oblique-4f" transform="translate(1644.398438 0)"/>
     <use xlink:href="#DejaVuSans-Oblique-70" transform="translate(1723.109375 0)"/>
     <use xlink:href="#DejaVuSans-Oblique-74" transform="translate(1786.585938 0)"/>
     <use xlink:href="#DejaVuSans-Oblique-69" transform="translate(1825.794922 0)"/>
     <use xlink:href="#DejaVuSans-Oblique-6d" transform="translate(1853.578125 0)"/>
     <use xlink:href="#DejaVuSans-Oblique-69" transform="translate(1950.990234 0)"/>
     <use xlink:href="#DejaVuSans-Oblique-7a" transform="translate(1978.773438 0)"/>
     <use xlink:href="#DejaVuSans-Oblique-61" transform="translate(2031.263672 0)"/>
     <use xlink:href="#DejaVuSans-Oblique-74" transform="translate(2092.542969 0)"/>
     <use xlink:href="#DejaVuSans-Oblique-69" transform="translate(2131.751953 0)"/>
     <use xlink:href="#DejaVuSans-Oblique-6f" transform="translate(2159.535156 0)"/>
     <use xlink:href="#DejaVuSans-Oblique-6e" transform="translate(2220.716797 0)"/>
     <use xlink:href="#DejaVuSans-Oblique-20" transform="translate(2284.095703 0)"/>
     <use xlink:href="#DejaVuSans-Oblique-53" transform="translate(2315.882812 0)"/>
     <use xlink:href="#DejaVuSans-Oblique-75" transform="translate(2379.359375 0)"/>
     <use xlink:href="#DejaVuSans-Oblique-69" transform="translate(2442.738281 0)"/>
     <use xlink:href="#DejaVuSans-Oblique-74" transform="translate(2470.521484 0)"/>
     <use xlink:href="#DejaVuSans-Oblique-65" transform="translate(2509.730469 0)"/>
    </g>
   </g>
   <g id="text_3">
    <!-- Time Series Aggregation Module -->
    <g style="fill: #555555" transform="translate(158.4 126) scale(0.13 -0.13)">
     <defs>
      <path id="DejaVuSans-Oblique-41" d="M 2356 4666 
L 3072 4666 
L 3938 0 
L 3278 0 
L 3084 1197 
L 984 1197 
L 325 0 
L -341 0 
L 2356 4666 
z
M 2584 4044 
L 1275 1722 
L 2988 1722 
L 2584 4044 
z
" transform="scale(0.015625)"/>
      <path id="DejaVuSans-Oblique-4d" d="M 1081 4666 
L 2028 4666 
L 2572 1522 
L 4378 4666 
L 5350 4666 
L 4441 0 
L 3828 0 
L 4622 4091 
L 2791 897 
L 2175 897 
L 1581 4103 
L 788 0 
L 172 0 
L 1081 4666 
z
" transform="scale(0.015625)"/>
      <path id="DejaVuSans-Oblique-64" d="M 2675 525 
Q 2444 222 2128 65 
Q 1813 -91 1428 -91 
Q 903 -91 598 267 
Q 294 625 294 1247 
Q 294 1766 478 2236 
Q 663 2706 1013 3078 
Q 1244 3325 1534 3454 
Q 1825 3584 2144 3584 
Q 2481 3584 2739 3421 
Q 2997 3259 3138 2956 
L 3513 4863 
L 4091 4863 
L 3144 0 
L 2566 0 
L 2675 525 
z
M 891 1350 
Q 891 897 1095 644 
Q 1300 391 1663 391 
Q 1931 391 2161 520 
Q 2391 650 2566 903 
Q 2750 1166 2856 1509 
Q 2963 1853 2963 2188 
Q 2963 2622 2758 2865 
Q 2553 3109 2194 3109 
Q 1922 3109 1687 2981 
Q 1453 2853 1288 2613 
Q 1106 2353 998 2009 
Q 891 1666 891 1350 
z
" transform="scale(0.015625)"/>
      <path id="DejaVuSans-Oblique-6c" d="M 1172 4863 
L 1747 4863 
L 800 0 
L 225 0 
L 1172 4863 
z
" transform="scale(0.015625)"/>
     </defs>
     <use xlink:href="#DejaVuSans-Oblique-54"/>
     <use xlink:href="#DejaVuSans-Oblique-69" transform="translate(61.083984 0)"/>
     <use xlink:href="#DejaVuSans-Oblique-6d" transform="translate(88.867188 0)"/>
     <use xlink:href="#DejaVuSans-Oblique-65" transform="translate(186.279297 0)"/>
     <use xlink:href="#DejaVuSans-Oblique-20" transform="translate(247.802734 0)"/>
     <use xlink:href="#DejaVuSans-Oblique-53" transform="translate(279.589844 0)"/>
     <use xlink:href="#DejaVuSans-Oblique-65" transform="translate(343.066406 0)"/>
     <use xlink:href="#DejaVuSans-Oblique-72" transform="translate(404.589844 0)"/>
     <use xlink:href="#DejaVuSans-Oblique-69" transform="translate(445.703125 0)"/>
     <use xlink:href="#DejaVuSans-Oblique-65" transform="translate(473.486328 0)"/>
     <use xlink:href="#DejaVuSans-Oblique-73" transform="translate(535.009766 0)"/>
     <use xlink:href="#DejaVuSans-Oblique-20" transform="translate(587.109375 0)"/>
     <use xlink:href="#DejaVuSans-Oblique-41" transform="translate(618.896484 0)"/>
     <use xlink:href="#DejaVuSans-Oblique-67" transform="translate(687.304688 0)"/>
     <use xlink:href="#DejaVuSans-Oblique-67" transform="translate(750.78125 0)"/>
     <use xlink:href="#DejaVuSans-Oblique-72" transform="translate(814.257812 0)"/>
     <use xlink:href="#DejaVuSans-Oblique-65" transform="translate(855.371094 0)"/>
     <use xlink:href="#DejaVuSans-Oblique-67" transform="translate(916.894531 0)"/>
     <use xlink:href="#DejaVuSans-Oblique-61" transform="translate(980.371094 0)"/>
     <use xlink:href="#DejaVuSans-Oblique-74" transform="translate(1041.650391 0)"/>
     <use xlink:href="#DejaVuSans-Oblique-69" transform="translate(1080.859375 0)"/>
     <use xlink:href="#DejaVuSans-Oblique-6f" transform="translate(1108.642578 0)"/>
     <use xlink:href="#DejaVuSans-Oblique-6e" transform="translate(1169.824219 0)"/>
     <use xlink:href="#DejaVuSans-Oblique-20" transform="translate(1233.203125 0)"/>
     <use xlink:href="#DejaVuSans-Oblique-4d" transform="translate(1264.990234 0)"/>
     <use xlink:href="#DejaVuSans-Oblique-6f" transform="translate(1351.269531 0)"/>
     <use xlink:href="#DejaVuSans-Oblique-64" transform="translate(1412.451172 0)"/>
     <use xlink:href="#DejaVuSans-Oblique-75" transform="translate(1475.927734 0)"/>
     <use xlink:href="#DejaVuSans-Oblique-6c" transform="translate(1539.306641 0)"/>
     <use xlink:href="#DejaVuSans-Oblique-65" transform="translate(1567.089844 0)"/>
    </g>
   </g>
  </g>
 </g>
 <defs>
  <clipPath id="pf7086fe188">
   <path d="M 14.4 138.96 
L 129.6 138.96 
Q 135.36 138.96 135.36 133.2 
L 135.36 18 
Q 135.36 12.24 129.6 12.24 
L 14.4 12.24 
Q 8.64 12.24 8.64 18 
L 8.64 133.2 
Q 8.64 138.96 14.4 138.96 
z
"/>
  </clipPath>
  <clipPath id="p5202cac695">
   <path d="M 14.4 138.96 
L 129.6 138.96 
Q 135.36 138.96 135.36 133.2 
L 135.36 18 
Q 135.36 12.24 129.6 12.24 
L 14.4 12.24 
Q 8.64 12.24 8.64 18 
L 8.64 133.2 
Q 8.64 138.96 14.4 138.96 
z
"/>
  </clipPath>
  <clipPath id="p89dcb44ac8">
   <path d="M 14.4 138.96 
L 129.6 138.96 
Q 135.36 138.96 135.36 133.2 
L 135.36 18 
Q 135.36 12.24 129.6 12.24 
L 14.4 12.24 
Q 8.64 12.24 8.64 18 
L 8.64 133.2 
Q 8.64 138.96 14.4 138.96 
z
"/>
  </clipPath>
  <clipPath id="p0384677ece">
   <path d="M 14.4 138.96 
L 129.6 138.96 
Q 135.36 138.96 135.36 133.2 
L 135.36 18 
Q 135.36 12.24 129.6 12.24 
L 14.4 12.24 
Q 8.64 12.24 8.64 18 
L 8.64 133.2 
Q 8.64 138.96 14.4 138.96 
z
"/>
  </clipPath>
  <clipPath id="p21a42cb296">
   <path d="M 14.4 138.96 
L 129.6 138.96 
Q 135.36 138.96 135.36 133.2 
L 135.36 18 
Q 135.36 12.24 129.6 12.24 
L 14.4 12.24 
Q 8.64 12.24 8.64 18 
L 8.64 133.2 
Q 8.64 138.96 14.4 138.96 
z
"/>
  </clipPath>
  <clipPath id="p4d6bc4b611">
   <path d="M 14.4 138.96 
L 129.6 138.96 
Q 135.36 138.96 135.36 133.2 
L 135.36 18 
Q 135.36 12.24 129.6 12.24 
L 14.4 12.24 
Q 8.64 12.24 8.64 18 
L 8.64 133.2 
Q 8.64 138.96 14.4 138.96 
z
"/>
  </clipPath>
  <clipPath id="pf3c19e8bc4">
   <path d="M 14.4 138.96 
L 129.6 138.96 
Q 135.36 138.96 135.36 133.2 
L 135.36 18 
Q 135.36 12.24 129.6 12.24 
L 14.4 12.24 
Q 8.64 12.24 8.64 18 
L 8.64 133.2 
Q 8.64 138.96 14.4 138.96 
z
"/>
  </clipPath>
  <clipPath id="p366816dfbd">
   <path d="M 14.4 138.96 
L 129.6 138.96 
Q 135.36 138.96 135.36 133.2 
L 135.36 18 
Q 135.36 12.24 129.6 12.24 
L 14.4 12.24 
Q 8.64 12.24 8.64 18 
L 8.64 133.2 
Q 8.64 138.96 14.4 138.96 
z
"/>
  </clipPath>
  <clipPath id="pbf106c1394">
   <path d="M 14.4 138.96 
L 129.6 138.96 
Q 135.36 138.96 135.36 133.2 
L 135.36 18 
Q 135.36 12.24 129.6 12.24 
L 14.4 12.24 
Q 8.64 12.24 8.64 18 
L 8.64 133.2 
Q 8.64 138.96 14.4 138.96 
z
"/>
  </clipPath>
  <clipPath id="pf0217615d3">
   <path d="M 14.4 138.96 
L 129.6 138.96 
Q 135.36 138.96 135.36 133.2 
L 135.36 18 
Q 135.36 12.24 129.6 12.24 
L 14.4 12.24 
Q 8.64 12.24 8.64 18 
L 8.64 133.2 
Q 8.64 138.96 14.4 138.96 
z
"/>
  </clipPath>
  <clipPath id="p789b4d61fb">
   <path d="M 14.4 138.96 
L 129.6 138.96 
Q 135.36 138.96 135.36 133.2 
L 135.36 18 
Q 135.36 12.24 129.6 12.24 
L 14.4 12.24 
Q 8.64 12.24 8.64 18 
L 8.64 133.2 
Q 8.64 138.96 14.4 138.96 
z
"/>
  </clipPath>
  <clipPath id="p603658bb68">
   <path d="M 14.4 138.96 
L 129.6 138.96 
Q 135.36 138.96 135.36 133.2 
L 135.36 18 
Q 135.36 12.24 129.6 12.24 
L 14.4 12.24 
Q 8.64 12.24 8.64 18 
L 8.64 133.2 
Q 8.64 138.96 14.4 138.96 
z
"/>
  </clipPath>
  <clipPath id="pea38d7b55c">
   <path d="M 14.4 138.96 
L 129.6 138.96 
Q 135.36 138.96 135.36 133.2 
L 135.36 18 
Q 135.36 12.24 129.6 12.24 
L 14.4 12.24 
Q 8.64 12.24 8.64 18 
L 8.64 133.2 
Q 8.64 138.96 14.4 138.96 
z
"/>
  </clipPath>
  <clipPath id="pb6683b771b">
   <path d="M 14.4 138.96 
L 129.6 138.96 
Q 135.36 138.96 135.36 133.2 
L 135.36 18 
Q 135.36 12.24 129.6 12.24 
L 14.4 12.24 
Q 8.64 12.24 8.64 18 
L 8.64 133.2 
Q 8.64 138.96 14.4 138.96 
z
"/>
  </clipPath>
  <clipPath id="p99ef4052a1">
   <path d="M 14.4 138.96 
L 129.6 138.96 
Q 135.36 138.96 135.36 133.2 
L 135.36 18 
Q 135.36 12.24 129.6 12.24 
L 14.4 12.24 
Q 8.64 12.24 8.64 18 
L 8.64 133.2 
Q 8.64 138.96 14.4 138.96 
z
"/>
  </clipPath>
  <clipPath id="p47d92363de">
   <path d="M 14.4 138.96 
L 129.6 138.96 
Q 135.36 138.96 135.36 133.2 
L 135.36 18 
Q 135.36 12.24 129.6 12.24 
L 14.4 12.24 
Q 8.64 12.24 8.64 18 
L 8.64 133.2 
Q 8.64 138.96 14.4 138.96 
z
"/>
  </clipPath>
  <clipPath id="p578984e79e">
   <path d="M 14.4 138.96 
L 129.6 138.96 
Q 135.36 138.96 135.36 133.2 
L 135.36 18 
Q 135.36 12.24 129.6 12.24 
L 14.4 12.24 
Q 8.64 12.24 8.64 18 
L 8.64 133.2 
Q 8.64 138.96 14.4 138.96 
z
"/>
  </clipPath>
  <clipPath id="p7735cbbf49">
   <path d="M 14.4 138.96 
L 129.6 138.96 
Q 135.36 138.96 135.36 133.2 
L 135.36 18 
Q 135.36 12.24 129.6 12.24 
L 14.4 12.24 
Q 8.64 12.24 8.64 18 
L 8.64 133.2 
Q 8.64 138.96 14.4 138.96 
z
"/>
  </clipPath>
  <clipPath id="pec52f5f2ba">
   <path d="M 14.4 138.96 
L 129.6 138.96 
Q 135.36 138.96 135.36 133.2 
L 135.36 18 
Q 135.36 12.24 129.6 12.24 
L 14.4 12.24 
Q 8.64 12.24 8.64 18 
L 8.64 133.2 
Q 8.64 138.96 14.4 138.96 
z
"/>
  </clipPath>
  <clipPath id="p97004484f0">
   <path d="M 14.4 138.96 
L 129.6 138.96 
Q 135.36 138.96 135.36 133.2 
L 135.36 18 
Q 135.36 12.24 129.6 12.24 
L 14.4 12.24 
Q 8.64 12.24 8.64 18 
L 8.64 133.2 
Q 8.64 138.96 14.4 138.96 
z
"/>
  </clipPath>
  <clipPath id="p1c8894e571">
   <path d="M 14.4 138.96 
L 129.6 138.96 
Q 135.36 138.96 135.36 133.2 
L 135.36 18 
Q 135.36 12.24 129.6 12.24 
L 14.4 12.24 
Q 8.64 12.24 8.64 18 
L 8.64 133.2 
Q 8.64 138.96 14.4 138.96 
z
"/>
  </clipPath>
  <clipPath id="p5f889f722a">
   <path d="M 14.4 138.96 
L 129.6 138.96 
Q 135.36 138.96 135.36 133.2 
L 135.36 18 
Q 135.36 12.24 129.6 12.24 
L 14.4 12.24 
Q 8.64 12.24 8.64 18 
L 8.64 133.2 
Q 8.64 138.96 14.4 138.96 
z
"/>
  </clipPath>
  <clipPath id="p59d38c0ae9">
   <path d="M 14.4 138.96 
L 129.6 138.96 
Q 135.36 138.96 135.36 133.2 
L 135.36 18 
Q 135.36 12.24 129.6 12.24 
L 14.4 12.24 
Q 8.64 12.24 8.64 18 
L 8.64 133.2 
Q 8.64 138.96 14.4 138.96 
z
"/>
  </clipPath>
  <clipPath id="p1cec0e1a47">
   <path d="M 14.4 138.96 
L 129.6 138.96 
Q 135.36 138.96 135.36 133.2 
L 135.36 18 
Q 135.36 12.24 129.6 12.24 
L 14.4 12.24 
Q 8.64 12.24 8.64 18 
L 8.64 133.2 
Q 8.64 138.96 14.4 138.96 
z
"/>
  </clipPath>
  <clipPath id="pc22665872d">
   <path d="M 14.4 138.96 
L 129.6 138.96 
Q 135.36 138.96 135.36 133.2 
L 135.36 18 
Q 135.36 12.24 129.6 12.24 
L 14.4 12.24 
Q 8.64 12.24 8.64 18 
L 8.64 133.2 
Q 8.64 138.96 14.4 138.96 
z
"/>
  </clipPath>
  <clipPath id="p37f0421bf0">
   <path d="M 14.4 138.96 
L 129.6 138.96 
Q 135.36 138.96 135.36 133.2 
L 135.36 18 
Q 135.36 12.24 129.6 12.24 
L 14.4 12.24 
Q 8.64 12.24 8.64 18 
L 8.64 133.2 
Q 8.64 138.96 14.4 138.96 
z
"/>
  </clipPath>
  <clipPath id="p7fcffdbb42">
   <path d="M 14.4 138.96 
L 129.6 138.96 
Q 135.36 138.96 135.36 133.2 
L 135.36 18 
Q 135.36 12.24 129.6 12.24 
L 14.4 12.24 
Q 8.64 12.24 8.64 18 
L 8.64 133.2 
Q 8.64 138.96 14.4 138.96 
z
"/>
  </clipPath>
  <clipPath id="pc2f61834f8">
   <path d="M 14.4 138.96 
L 129.6 138.96 
Q 135.36 138.96 135.36 133.2 
L 135.36 18 
Q 135.36 12.24 129.6 12.24 
L 14.4 12.24 
Q 8.64 12.24 8.64 18 
L 8.64 133.2 
Q 8.64 138.96 14.4 138.96 
z
"/>
  </clipPath>
  <clipPath id="p1bfd808592">
   <path d="M 14.4 138.96 
L 129.6 138.96 
Q 135.36 138.96 135.36 133.2 
L 135.36 18 
Q 135.36 12.24 129.6 12.24 
L 14.4 12.24 
Q 8.64 12.24 8.64 18 
L 8.64 133.2 
Q 8.64 138.96 14.4 138.96 
z
"/>
  </clipPath>
  <clipPath id="pd83f4b54f7">
   <path d="M 14.4 138.96 
L 129.6 138.96 
Q 135.36 138.96 135.36 133.2 
L 135.36 18 
Q 135.36 12.24 129.6 12.24 
L 14.4 12.24 
Q 8.64 12.24 8.64 18 
L 8.64 133.2 
Q 8.64 138.96 14.4 138.96 
z
"/>
  </clipPath>
  <clipPath id="p96732e58a6">
   <path d="M 14.4 138.96 
L 129.6 138.96 
Q 135.36 138.96 135.36 133.2 
L 135.36 18 
Q 135.36 12.24 129.6 12.24 
L 14.4 12.24 
Q 8.64 12.24 8.64 18 
L 8.64 133.2 
Q 8.64 138.96 14.4 138.96 
z
"/>
  </clipPath>
  <clipPath id="p8aa870858c">
   <path d="M 14.4 138.96 
L 129.6 138.96 
Q 135.36 138.96 135.36 133.2 
L 135.36 18 
Q 135.36 12.24 129.6 12.24 
L 14.4 12.24 
Q 8.64 12.24 8.64 18 
L 8.64 133.2 
Q 8.64 138.96 14.4 138.96 
z
"/>
  </clipPath>
  <clipPath id="p8e2055212d">
   <path d="M 14.4 138.96 
L 129.6 138.96 
Q 135.36 138.96 135.36 133.2 
L 135.36 18 
Q 135.36 12.24 129.6 12.24 
L 14.4 12.24 
Q 8.64 12.24 8.64 18 
L 8.64 133.2 
Q 8.64 138.96 14.4 138.96 
z
"/>
  </clipPath>
  <clipPath id="p0c78c85a50">
   <path d="M 14.4 138.96 
L 129.6 138.96 
Q 135.36 138.96 135.36 133.2 
L 135.36 18 
Q 135.36 12.24 129.6 12.24 
L 14.4 12.24 
Q 8.64 12.24 8.64 18 
L 8.64 133.2 
Q 8.64 138.96 14.4 138.96 
z
"/>
  </clipPath>
  <clipPath id="p59a9ddfa29">
   <path d="M 14.4 138.96 
L 129.6 138.96 
Q 135.36 138.96 135.36 133.2 
L 135.36 18 
Q 135.36 12.24 129.6 12.24 
L 14.4 12.24 
Q 8.64 12.24 8.64 18 
L 8.64 133.2 
Q 8.64 138.96 14.4 138.96 
z
"/>
  </clipPath>
  <clipPath id="p6a2fe5d333">
   <path d="M 14.4 138.96 
L 129.6 138.96 
Q 135.36 138.96 135.36 133.2 
L 135.36 18 
Q 135.36 12.24 129.6 12.24 
L 14.4 12.24 
Q 8.64 12.24 8.64 18 
L 8.64 133.2 
Q 8.64 138.96 14.4 138.96 
z
"/>
  </clipPath>
  <clipPath id="p65e2492e5e">
   <rect x="3.6" y="3.6" width="648" height="144"/>
  </clipPath>
 </defs>
</svg>
