<svg xmlns="http://www.w3.org/2000/svg" viewBox="0 0 144 144">
  <defs>
    <clipPath id="rc">
      <rect x="0" y="0" width="144" height="144" rx="12" ry="12"/>
    </clipPath>
  </defs>
  <g clip-path="url(#rc)">
    <rect x="0"    width="5.6" y="0" height="144" fill="#424086"/>
    <rect x="5.6"  width="5.6" y="0" height="144" fill="#404688"/>
    <rect x="11.2" width="5.6" y="0" height="144" fill="#472e7c"/>
    <rect x="16.8" width="5.6" y="0" height="144" fill="#2e6f8e"/>
    <rect x="22.4" width="5.6" y="0" height="144" fill="#2e6e8e"/>
    <rect x="28"   width="5.6" y="0" height="144" fill="#3d4e8a"/>
    <rect x="33.6" width="5.6" y="0" height="144" fill="#31688e"/>
    <rect x="39.2" width="5.6" y="0" height="144" fill="#32648e"/>
    <rect x="44.8" width="5.6" y="0" height="144" fill="#38598c"/>
    <rect x="50.4" width="5.6" y="0" height="144" fill="#39558c"/>
    <rect x="56"   width="5.6" y="0" height="144" fill="#277e8e"/>
    <rect x="61.6" width="5.6" y="0" height="144" fill="#23a983"/>
    <rect x="67.2" width="5.6" y="0" height="144" fill="#21918c"/>
    <rect x="72.8" width="5.6" y="0" height="144" fill="#23888e"/>
    <rect x="78.4" width="5.6" y="0" height="144" fill="#1f948c"/>
    <rect x="84"   width="5.6" y="0" height="144" fill="#228d8d"/>
    <rect x="89.6" width="5.6" y="0" height="144" fill="#2fb47c"/>
    <rect x="95.2" width="5.6" y="0" height="144" fill="#44bf70"/>
    <rect x="100.8" width="5.6" y="0" height="144" fill="#1f978b"/>
    <rect x="106.4" width="5.6" y="0" height="144" fill="#38b977"/>
    <rect x="112"  width="5.6" y="0" height="144" fill="#73d056"/>
    <rect x="117.6" width="5.6" y="0" height="144" fill="#26ad81"/>
    <rect x="123.2" width="5.6" y="0" height="144" fill="#3dbc74"/>
    <rect x="128.8" width="5.6" y="0" height="144" fill="#20a386"/>
    <rect x="134.4" width="5.6" y="0" height="144" fill="#20928c"/>
    <rect x="140"  width="4"   y="0" height="144" fill="#27808e"/>
  </g>
</svg>
